<svg xmlns="http://www.w3.org/2000/svg" viewBox="0 0 3404 254"><title>mpa-banner-bt</title><g id="Letters"><g id="Outlines"><g><path d="M788.76,83.17h13.9l26.16,62.67,27.34-62.67h13.89l16.56,98.58H867.1L858.23,121l-26.46,60.74h-6.5L800,121l-10,60.74H770.44Z" fill="currentColor"/><path d="M1019,132.54c0,30-21.58,51.43-52.62,51.43s-52.61-21.43-52.61-51.43S935.39,81,966.42,81,1019,102.53,1019,132.54Zm-19.81,0c0-20-13.59-34.15-32.81-34.15s-32.81,14.19-32.81,34.15,13.6,34,32.81,34S999.23,152.49,999.23,132.54Z" fill="currentColor"/><path d="M1084.81,99.73v82H1065.6v-82h-22.17V83.17H1107V99.73Z" fill="currentColor"/><path d="M1164.63,83.17v98.58h-19.22V83.17Z" fill="currentColor"/><path d="M1304.6,132.54c0,30-21.58,51.43-52.62,51.43s-52.62-21.43-52.62-51.43S1220.94,81,1252,81,1304.6,102.53,1304.6,132.54Zm-19.81,0c0-20-13.59-34.15-32.81-34.15s-32.81,14.19-32.81,34.15,13.6,34,32.81,34S1284.79,152.49,1284.79,132.54Z" fill="currentColor"/><path d="M1338.89,181.75V83.17h13.3l60,65.77V83.17h19.21v98.58h-13.3l-60-65.91v65.91Z" fill="currentColor"/><path d="M1561.33,83.17c11.09,0,18.78,1.18,26,7.54,8,7.09,10.05,16.7,10.05,23.8,0,3.84-.59,14.48-8.13,22-5.47,5.47-13.6,8.72-25,8.72h-12.42v36.5h-19.21V83.17Zm-9.46,45.52h7.84c3.69,0,8.42,0,12.56-3.1a14.7,14.7,0,0,0,5.32-11.53,13.57,13.57,0,0,0-5.47-11.23c-4-2.81-9-3.1-13.59-3.1h-6.66Z" fill="currentColor"/><path d="M1650.82,83.17v98.58H1631.6V83.17Z" fill="currentColor"/><path d="M1762.26,178.21a51.11,51.11,0,0,1-24.39,5.76c-17.29,0-27.79-5.91-36.06-13.74C1690.43,159.29,1686,147,1686,132.54c0-17.89,7.39-30.74,15.82-38.58,9.9-9.31,22.17-13,36.21-13A49.64,49.64,0,0,1,1762.26,87v22.47a31.71,31.71,0,0,0-23.8-11.09c-19.8,0-32.66,16.26-32.66,34.44,0,21.88,16.85,33.7,33.4,33.7a29.84,29.84,0,0,0,23.06-10.79Z" fill="currentColor"/><path d="M1836.9,99.73v82h-19.21v-82h-22.17V83.17h63.55V99.73Z" fill="currentColor"/><path d="M1912.57,83.17V145.1c0,7.54,2.52,12.12,4.73,14.63,2.81,3.4,8,6.8,15.67,6.8s12.86-3.4,15.67-6.8c2.22-2.51,4.73-7.09,4.73-14.63V83.17h19.21v60.3c0,9.31-1.48,18.77-7.39,26.31C1958.1,179.09,1945.68,184,1933,184s-25.13-4.88-32.22-14.19c-5.91-7.54-7.39-17-7.39-26.31V83.17Z" fill="currentColor"/><path d="M2040.13,83.17c13.6,0,20.54,3.55,25.13,7.39,7.53,6.36,9.75,14.78,9.75,22.17,0,9.61-3.84,18-11.53,23.21a27.26,27.26,0,0,1-10.79,4.28l30.75,41.53h-24l-26.31-39.61h-2.36v39.61H2011.6V83.17Zm-9.31,45.38h5.47c3.69,0,18.91-.45,18.91-14.93,0-14.63-15.07-14.78-18.62-14.78h-5.76Z" fill="currentColor"/><path d="M2170.19,99.73h-35.47v22h34V138.3h-34v26.9h35.47v16.55h-54.68V83.17h54.68Z" fill="currentColor"/><path d="M2314.15,161.06H2274.4l-8.72,20.69h-20.84l42.42-98.58h15.07l41.23,98.58h-20.69Zm-5.61-15.66-14-35.48-14,35.48Z" fill="currentColor"/><path d="M2423.09,105.64c-5.77-7.69-12.57-8.43-16.11-8.43-10.35,0-13.6,6.51-13.6,11.53a8.31,8.31,0,0,0,3.1,6.65c2.37,2.22,5.62,3.4,11.83,5.62,7.68,2.66,14.92,5.32,20,9.9,4.43,4,8.42,10.64,8.42,20.69,0,19.22-13.89,32.37-34.28,32.37-18.18,0-28.83-11.08-34-18.62l12.56-12a23.13,23.13,0,0,0,20.7,13.15c8.72,0,15.22-5.32,15.22-13.6a11.44,11.44,0,0,0-3.84-8.86c-3.7-3.4-9.61-5.33-15.23-7.25-5.17-1.77-11.38-4.13-16.4-8.57-3.25-2.81-7.84-8.28-7.84-18.33,0-14.48,9.76-29,31.63-29a38,38,0,0,1,27.94,11.53Z" fill="currentColor"/><path d="M2521.08,105.64c-5.76-7.69-12.56-8.43-16.11-8.43-10.34,0-13.6,6.51-13.6,11.53a8.29,8.29,0,0,0,3.11,6.65c2.36,2.22,5.61,3.4,11.82,5.62,7.69,2.66,14.93,5.32,19.95,9.9,4.44,4,8.43,10.64,8.43,20.69,0,19.22-13.9,32.37-34.29,32.37-18.18,0-28.82-11.08-34-18.62l12.57-12a23.12,23.12,0,0,0,20.69,13.15c8.72,0,15.22-5.32,15.22-13.6a11.44,11.44,0,0,0-3.84-8.86c-3.7-3.4-9.61-5.33-15.22-7.25-5.18-1.77-11.38-4.13-16.41-8.57-3.25-2.81-7.83-8.28-7.83-18.33,0-14.48,9.75-29,31.63-29a37.94,37.94,0,0,1,27.93,11.53Z" fill="currentColor"/><path d="M2670.51,132.54c0,30-21.58,51.43-52.62,51.43s-52.61-21.43-52.61-51.43S2586.85,81,2617.89,81,2670.51,102.53,2670.51,132.54Zm-19.81,0c0-20-13.59-34.15-32.81-34.15s-32.81,14.19-32.81,34.15,13.6,34,32.81,34S2650.7,152.49,2650.7,132.54Z" fill="currentColor"/><path d="M2778.11,178.21a51.06,51.06,0,0,1-24.38,5.76c-17.3,0-27.79-5.91-36.07-13.74-11.38-10.94-15.81-23.21-15.81-37.69,0-17.89,7.39-30.74,15.81-38.58,9.91-9.31,22.17-13,36.21-13A49.61,49.61,0,0,1,2778.11,87v22.47a31.69,31.69,0,0,0-23.79-11.09c-19.81,0-32.67,16.26-32.67,34.44,0,21.88,16.85,33.7,33.41,33.7a29.83,29.83,0,0,0,23.05-10.79Z" fill="currentColor"/><path d="M2837.59,83.17v98.58h-19.21V83.17Z" fill="currentColor"/><path d="M2940.61,161.06h-39.76l-8.72,20.69h-20.84l42.42-98.58h15.07L2970,181.75h-20.69ZM2935,145.4l-14-35.48-14,35.48Z" fill="currentColor"/><path d="M3025.89,99.73v82h-19.21v-82h-22.17V83.17h63.55V99.73Z" fill="currentColor"/><path d="M3105.71,83.17v98.58h-19.22V83.17Z" fill="currentColor"/><path d="M3245.67,132.54c0,30-21.57,51.43-52.61,51.43s-52.62-21.43-52.62-51.43S3162,81,3193.06,81,3245.67,102.53,3245.67,132.54Zm-19.8,0c0-20-13.6-34.15-32.81-34.15s-32.81,14.19-32.81,34.15,13.59,34,32.81,34S3225.87,152.49,3225.87,132.54Z" fill="currentColor"/><path d="M3280,181.75V83.17h13.3l60,65.77V83.17h19.21v98.58h-13.3l-60-65.91v65.91Z" fill="currentColor"/></g></g></g><g id="Globe"><g><path id="Rings" d="M290.48,5.12h0c-161.5,0-288,53.3-288,121.34s126.5,121.35,288,121.35h0c161.49,0,288-53.3,288-121.35S452,5.12,290.48,5.12Zm272.68,114H506c-3.13-30.45-25.75-58.54-64.52-79.73-1.59-.87-3.2-1.71-4.82-2.55C507.48,54.79,556.92,85.06,563.16,119.14Zm-71.86,0H411.6A121.38,121.38,0,0,0,358.51,26C432,40.06,485.78,76.14,491.3,119.14Zm-347-82.28c-1.63.84-3.24,1.68-4.82,2.55-38.77,21.19-61.4,49.28-64.53,79.73H17.79C24,85.06,73.47,54.79,144.27,36.86ZM222.44,26a121.37,121.37,0,0,0-53.08,93.11H89.65C95.18,76.14,149,40.06,222.44,26ZM17.79,133.78H74.92c3.13,30.45,25.76,58.54,64.53,79.73,1.58.87,3.19,1.71,4.82,2.55C73.47,198.13,24,167.86,17.79,133.78Zm71.86,0h79.71a121.37,121.37,0,0,0,53.08,93.11C149,212.86,95.18,176.78,89.65,133.78Zm200.83,99.39h0a106.71,106.71,0,0,1,0-213.42h0a106.71,106.71,0,1,1,0,213.42ZM411.6,133.78h79.7c-5.52,43-59.3,79.08-132.79,93.11A121.38,121.38,0,0,0,411.6,133.78Zm25.09,82.28c1.62-.84,3.23-1.68,4.82-2.55,38.77-21.19,61.39-49.28,64.52-79.73h57.13C556.92,167.86,507.48,198.13,436.69,216.06Z" fill="currentColor"/><g id="Film_Canister_Interior" data-name="Film Canister Interior"><path d="M247.13,109.14h0a26,26,0,1,0-26-26A26,26,0,0,0,247.13,109.14Z" fill="currentColor"/><path d="M273.12,169.77a26,26,0,0,0-26-26h0a26,26,0,1,0,26,26Z" fill="currentColor"/><path d="M307.83,83.15a26,26,0,1,0,26-26A26,26,0,0,0,307.83,83.15Z" fill="currentColor"/><circle cx="333.82" cy="169.77" r="25.99" transform="translate(-22.27 285.77) rotate(-45)" fill="currentColor"/><path d="M279.42,115.4a15.64,15.64,0,1,0,22.12,0A15.64,15.64,0,0,0,279.42,115.4Z" fill="currentColor"/><path d="M205.44,95.66a90.69,90.69,0,0,0,0,61.57,43.6,43.6,0,0,1,37.13-30.77A43.65,43.65,0,0,1,205.44,95.66Z" fill="currentColor"/><path d="M380.9,126.46a90.43,90.43,0,0,0-5.37-30.77,43.57,43.57,0,0,1-37.13,30.77,43.66,43.66,0,0,1,37.12,30.8A90.28,90.28,0,0,0,380.9,126.46Z" fill="currentColor"/><path d="M290.48,78.94a43.63,43.63,0,0,1,30.87-37.49,90.78,90.78,0,0,0-61.74,0A43.65,43.65,0,0,1,290.48,78.94Z" fill="currentColor"/><path d="M290.48,174.07a43.63,43.63,0,0,1-30.84,37.42,90.93,90.93,0,0,0,61.71,0A43.66,43.66,0,0,1,290.48,174.07Z" fill="currentColor"/></g></g></g></svg>